<svg id="Layer_1" enable-background="new 0 0 128 128" height="512" viewBox="0 0 128 128" width="512" xmlns="http://www.w3.org/2000/svg"><path id="Microphone" d="m64 88c-13.234 0-24-10.766-24-24v-32c0-13.234 10.766-24 24-24s24 10.766 24 24v32c0 13.234-10.766 24-24 24zm0-72c-8.822 0-16 7.178-16 16v32c0 8.822 7.178 16 16 16s16-7.178 16-16v-32c0-8.822-7.178-16-16-16zm36 40c-2.209 0-4 1.791-4 4v4c0 17.645-14.355 32-32 32s-32-14.355-32-32v-4c0-2.209-1.791-4-4-4s-4 1.791-4 4v4c0 20.707 15.815 37.784 36 39.797v8.203h-8c-2.209 0-4 1.791-4 4s1.791 4 4 4h24c2.209 0 4-1.791 4-4s-1.791-4-4-4h-8v-8.203c20.185-2.014 36-19.091 36-39.797v-4c0-2.209-1.791-4-4-4z"/></svg>